<svg width="175" height="200" viewBox="0 0 175 200" fill="none" xmlns="http://www.w3.org/2000/svg">
<path d="M56.25 50C66.6055 50 75 41.6055 75 31.25C75 20.8945 66.6055 12.5 56.25 12.5C45.8945 12.5 37.5 20.8945 37.5 31.25C37.5 41.6055 45.8945 50 56.25 50ZM37.5 75C37.5 64.6445 29.1055 56.25 18.75 56.25C8.39453 56.25 0 64.6445 0 75C0 85.3555 8.39453 93.75 18.75 93.75C29.1055 93.75 37.5 85.3555 37.5 75ZM118.75 50C129.105 50 137.5 41.6055 137.5 31.25C137.5 20.8945 129.105 12.5 118.75 12.5C108.395 12.5 100 20.8945 100 31.25C100 41.6055 108.395 50 118.75 50ZM156.25 56.25C145.895 56.25 137.5 64.6445 137.5 75C137.5 85.3555 145.895 93.75 156.25 93.75C166.605 93.75 175 85.3555 175 75C175 64.6445 166.605 56.25 156.25 56.25ZM143.48 117.492C133.211 111.695 125.066 93.5039 117.242 79.2773C111.098 68.0898 99.3008 62.5 87.5 62.5C75.6992 62.5 63.9023 68.0898 57.7539 79.2773C49.8281 93.7148 42.082 111.527 31.5156 117.492C20.168 123.898 12.5 136.008 12.5 149.98C12.5 170.688 29.2891 187.473 50 187.473C70.1992 188.16 78.1992 174.977 87.5 174.977C96.8008 174.977 104.801 188.16 125 187.473C145.711 187.473 162.5 170.688 162.5 149.98C162.5 136.008 154.832 123.898 143.48 117.492Z" fill="#3A3A3A"/>
</svg>
