<svg width="175" height="175" viewBox="0 0 175 175" fill="none" xmlns="http://www.w3.org/2000/svg">
<path d="M87.5 0C39.1633 0 0 39.1633 0 87.5C0 135.837 39.1633 175 87.5 175C135.837 175 175 135.837 175 87.5C175 39.1633 135.837 0 87.5 0ZM138.306 97.379C138.306 99.7077 136.401 101.613 134.073 101.613H101.613V134.073C101.613 136.401 99.7077 138.306 97.379 138.306H77.621C75.2923 138.306 73.3871 136.401 73.3871 134.073V101.613H40.9274C38.5988 101.613 36.6935 99.7077 36.6935 97.379V77.621C36.6935 75.2923 38.5988 73.3871 40.9274 73.3871H73.3871V40.9274C73.3871 38.5988 75.2923 36.6935 77.621 36.6935H97.379C99.7077 36.6935 101.613 38.5988 101.613 40.9274V73.3871H134.073C136.401 73.3871 138.306 75.2923 138.306 77.621V97.379Z" fill="url(#paint0_linear)"/>
<defs>
<linearGradient id="paint0_linear" x1="36.5" y1="17.5" x2="146" y2="150.5" gradientUnits="userSpaceOnUse">
<stop stop-color="#1CC8FF"/>
<stop offset="1" stop-color="#DF1CFF"/>
</linearGradient>
</defs>
</svg>
