<svg width="150" height="200" viewBox="0 0 150 200" fill="none" xmlns="http://www.w3.org/2000/svg">
<g clip-path="url(#clip0)">
<path d="M62.1094 131.25L46.6797 115.82C44.8438 113.984 41.875 113.984 40.0391 115.82L24.8047 131.055L24.6094 175H124.609V118.75L102.93 97.0702C101.094 95.2343 98.125 95.2343 96.2891 97.0702L62.1094 131.25ZM99.6094 111.445L112.109 123.945V162.5H37.1484L37.2656 136.25L43.3594 130.156L62.1094 148.906C70.0391 140.976 92.4609 118.594 99.6094 111.445ZM49.6094 99.9999C63.3984 99.9999 74.6094 88.7889 74.6094 74.9999C74.6094 61.2108 63.3984 49.9999 49.6094 49.9999C35.8203 49.9999 24.6094 61.2108 24.6094 74.9999C24.6094 88.7889 35.8203 99.9999 49.6094 99.9999ZM49.6094 62.4999C56.4844 62.4999 62.1094 68.1249 62.1094 74.9999C62.1094 81.8749 56.4844 87.4999 49.6094 87.4999C42.7344 87.4999 37.1094 81.8749 37.1094 74.9999C37.1094 68.1249 42.7344 62.4999 49.6094 62.4999ZM144.492 38.2421L111.719 5.46864C108.203 1.95302 103.438 -0.0391693 98.4766 -0.0391693H18.75C8.39844 -0.000106815 0 8.39833 0 18.7499V181.25C0 191.601 8.39844 200 18.75 200H131.25C141.602 200 150 191.601 150 181.25V51.5233C150 46.5624 148.008 41.7577 144.492 38.2421ZM100 12.6952C101.094 12.9686 102.07 13.5155 102.891 14.3358L135.664 47.1093C136.484 47.9296 137.031 48.9061 137.305 49.9999H100V12.6952ZM137.5 181.25C137.5 184.687 134.688 187.5 131.25 187.5H18.75C15.3125 187.5 12.5 184.687 12.5 181.25V18.7499C12.5 15.3124 15.3125 12.4999 18.75 12.4999H87.5V53.1249C87.5 58.3202 91.6797 62.4999 96.875 62.4999H137.5V181.25Z" fill="#3A3A3A"/>
</g>
<defs>
<clipPath id="clip0">
<rect width="150" height="200" fill="white"/>
</clipPath>
</defs>
</svg>
