<svg width="175" height="140" viewBox="0 0 175 140" fill="none" xmlns="http://www.w3.org/2000/svg">
<g clip-path="url(#clip0)">
<path d="M87.4994 105H35.001V61.25H17.5015V131.25C17.5015 136.09 21.4115 140 26.2512 140H96.2491C101.089 140 104.999 136.09 104.999 131.25V61.25H87.4994V105ZM173.52 38.8828L150.197 3.88281C148.556 1.44922 145.822 0 142.896 0H32.1026C29.1769 0 26.4426 1.44922 24.8294 3.88281L1.50588 38.8828C-2.37681 44.707 1.77931 52.5 8.7791 52.5H166.247C173.219 52.5 177.376 44.707 173.52 38.8828ZM139.998 135.625C139.998 138.031 141.966 140 144.373 140H153.122C155.529 140 157.497 138.031 157.497 135.625V61.25H139.998V135.625Z" fill="#3A3A3A"/>
</g>
<defs>
<clipPath id="clip0">
<rect width="175" height="140" fill="white"/>
</clipPath>
</defs>
</svg>
