<svg width="175" height="200" viewBox="0 0 175 200" fill="none" xmlns="http://www.w3.org/2000/svg">
<g clip-path="url(#clip0)">
<path d="M166.797 -1H164.062V9.41667C164.062 12.8542 162.217 15.6667 159.961 15.6667H146.289C144.033 15.6667 142.188 12.8542 142.188 9.41667V-1H32.8125V9.41667C32.8125 12.8542 30.9668 15.6667 28.7109 15.6667H15.0391C12.7832 15.6667 10.9375 12.8542 10.9375 9.41667V-1H8.20312C3.65723 -1 0 4.57292 0 11.5V186.5C0 193.427 3.65723 199 8.20312 199H10.9375V188.583C10.9375 185.146 12.7832 182.333 15.0391 182.333H28.7109C30.9668 182.333 32.8125 185.146 32.8125 188.583V199H142.188V188.583C142.188 185.146 144.033 182.333 146.289 182.333H159.961C162.217 182.333 164.062 185.146 164.062 188.583V199H166.797C171.343 199 175 193.427 175 186.5V11.5C175 4.57292 171.343 -1 166.797 -1ZM32.8125 159.417C32.8125 162.854 30.9668 165.667 28.7109 165.667H15.0391C12.7832 165.667 10.9375 162.854 10.9375 159.417V138.583C10.9375 135.146 12.7832 132.333 15.0391 132.333H28.7109C30.9668 132.333 32.8125 135.146 32.8125 138.583V159.417ZM32.8125 109.417C32.8125 112.854 30.9668 115.667 28.7109 115.667H15.0391C12.7832 115.667 10.9375 112.854 10.9375 109.417V88.5833C10.9375 85.1458 12.7832 82.3333 15.0391 82.3333H28.7109C30.9668 82.3333 32.8125 85.1458 32.8125 88.5833V109.417ZM32.8125 59.4167C32.8125 62.8542 30.9668 65.6667 28.7109 65.6667H15.0391C12.7832 65.6667 10.9375 62.8542 10.9375 59.4167V38.5833C10.9375 35.1458 12.7832 32.3333 15.0391 32.3333H28.7109C30.9668 32.3333 32.8125 35.1458 32.8125 38.5833V59.4167ZM131.25 176.083C131.25 179.521 129.404 182.333 127.148 182.333H47.8516C45.5957 182.333 43.75 179.521 43.75 176.083V113.583C43.75 110.146 45.5957 107.333 47.8516 107.333H127.148C129.404 107.333 131.25 110.146 131.25 113.583V176.083ZM131.25 84.4167C131.25 87.8542 129.404 90.6667 127.148 90.6667H47.8516C45.5957 90.6667 43.75 87.8542 43.75 84.4167V21.9167C43.75 18.4792 45.5957 15.6667 47.8516 15.6667H127.148C129.404 15.6667 131.25 18.4792 131.25 21.9167V84.4167ZM164.062 159.417C164.062 162.854 162.217 165.667 159.961 165.667H146.289C144.033 165.667 142.188 162.854 142.188 159.417V138.583C142.188 135.146 144.033 132.333 146.289 132.333H159.961C162.217 132.333 164.062 135.146 164.062 138.583V159.417ZM164.062 109.417C164.062 112.854 162.217 115.667 159.961 115.667H146.289C144.033 115.667 142.188 112.854 142.188 109.417V88.5833C142.188 85.1458 144.033 82.3333 146.289 82.3333H159.961C162.217 82.3333 164.062 85.1458 164.062 88.5833V109.417ZM164.062 59.4167C164.062 62.8542 162.217 65.6667 159.961 65.6667H146.289C144.033 65.6667 142.188 62.8542 142.188 59.4167V38.5833C142.188 35.1458 144.033 32.3333 146.289 32.3333H159.961C162.217 32.3333 164.062 35.1458 164.062 38.5833V59.4167Z" fill="#3A3A3A"/>
</g>
<defs>
<clipPath id="clip0">
<rect width="175" height="200" fill="white"/>
</clipPath>
</defs>
</svg>
