<svg width="150" height="112" viewBox="0 0 150 112" fill="none" xmlns="http://www.w3.org/2000/svg">
<path fill-rule="evenodd" clip-rule="evenodd" d="M97.7165 92.8825L56.0597 93.5658C51.2826 102.017 36.3531 106.956 30.3531 106.653C15.2376 105.89 7.62398 97.5799 5.98376 83.985C4.83268 74.4174 9.50611 64.515 19.3368 56.2714C7.11357 51.7282 7.79412 49.0645 6.73874 38.9972C5.18891 24.1821 18.9859 8.69964 34.5959 8.69964C41.085 8.69964 46.4416 11.802 51.2161 15.3137L102.44 12.1077C110.687 4.80776 113.797 5.07095 121.286 5.07095C134.386 5.07095 143.241 15.2951 144.14 28.7518C144.903 40.1642 135.992 50.0348 128.237 48.6737C137.132 54.8172 143.858 63.55 143.858 73.9416C143.858 87.8423 132.89 100.113 117.396 100.113C109.735 100.113 102.786 97.3539 97.7165 92.8825Z" fill="#CA985C"/>
<path fill-rule="evenodd" clip-rule="evenodd" d="M97.3757 72.8566C101.634 78.8007 109.426 84.0085 118.401 84.7901C127.192 85.5583 134.814 85.6673 146.41 72.7901C142.401 92.0979 131.06 100.113 117.396 100.113C109.735 100.113 102.786 97.3536 97.716 92.8822L56.0592 93.5654C51.2821 102.016 36.3526 106.956 30.3526 106.653C15.2371 105.89 7.62349 97.5795 5.98327 83.9846C5.93276 83.5539 5.89289 83.1233 5.86365 82.6899C10.8348 85.6354 20.1072 90.7129 26.5219 90.3221C35.3717 89.7825 43.5967 85.9863 50.5882 73.9359L97.3757 72.8566Z" fill="#9B7C57"/>
<path fill-rule="evenodd" clip-rule="evenodd" d="M40.488 10.1461C37.6834 9.55333 35.485 9.39649 33.6135 9.47624C30.9047 9.59054 28.895 10.2498 26.7736 10.941C25.3009 11.4381 23.2832 12.5174 21.3745 13.7721C19.5004 15.0056 17.7459 16.4172 16.664 17.4778C15.2524 18.9319 13.9923 20.3276 12.9343 21.7817C11.1718 24.2087 9.87723 26.7262 9.06378 29.6317C8.01108 33.4013 7.74791 37.8141 8.29818 43.6359C8.31679 44.2021 8.79529 44.646 9.36151 44.6274C9.92774 44.6061 10.3717 44.1303 10.3504 43.5641C10.4754 38.1623 11.2011 34.1562 12.5196 30.7881C13.4554 28.4036 14.7473 26.3966 16.3609 24.4241C17.387 23.1693 18.5301 21.9252 19.8407 20.6545C20.7551 19.7188 22.2757 18.5066 23.8495 17.3795C25.3966 16.2763 26.9836 15.2315 28.1825 14.7477C29.9477 14.014 31.6144 13.3043 33.9166 13.0039C35.5568 12.7912 37.5027 12.7513 40.0148 13.0411C40.815 13.1713 41.5673 12.629 41.7002 11.8315C41.8304 11.0314 41.2855 10.2764 40.488 10.1461Z" fill="white"/>
<path fill-rule="evenodd" clip-rule="evenodd" d="M124.316 7.41791C122.357 6.51937 120.589 5.96112 118.911 5.72984C117.5 5.53578 116.171 5.57033 114.953 5.82288C113.595 6.10998 112.382 6.63636 111.284 7.30894C109.639 8.31647 108.312 9.5659 107.02 10.9243C106.566 11.2646 106.475 11.9106 106.816 12.3652C107.156 12.8171 107.799 12.9102 108.254 12.5699C110.139 11.573 112.079 10.8871 114.302 10.4724C114.754 10.3874 115.216 10.3315 115.692 10.2571C116.357 10.1507 117.045 10.0551 117.782 9.99391C119.435 9.86099 121.264 9.79187 123.431 10.2119C124.202 10.4565 125.028 10.0285 125.273 9.25753C125.515 8.48659 125.087 7.66249 124.316 7.41791Z" fill="#FFFBFB"/>
<path fill-rule="evenodd" clip-rule="evenodd" d="M51.4515 19.2181C52.3393 19.2314 53.3309 19.2207 54.1417 19.1649C56.0451 19.032 57.5896 18.9788 58.0521 18.9363C60.1894 18.7422 61.8615 18.7103 64.5783 18.6492C67.3536 18.5881 70.1077 18.4711 71.6761 18.4126C73.2419 18.3116 74.6827 18.2292 76.0198 18.1042C78.4416 17.8783 80.539 17.6071 82.5141 17.3174C87.6022 16.5677 91.8077 15.6905 98.5333 14.6989C99.0968 14.6511 99.5169 14.1513 99.4664 13.5877C99.4185 13.0215 98.9214 12.6015 98.3552 12.652C95.213 12.7131 92.6185 12.7902 90.21 12.9072C86.3554 13.0933 83.0458 13.2634 78.9015 13.492C76.7004 13.6116 74.2733 13.803 71.405 13.936L57.2918 15.1748C57.0925 15.196 55.6835 15.3582 54.038 15.6506C52.9694 15.842 51.805 16.0786 50.8081 16.3577C50.0186 16.5358 49.5215 17.3227 49.6996 18.1122C49.8777 18.9017 50.5317 19.2048 51.4515 19.2181Z" fill="#FFFBFB"/>
<path fill-rule="evenodd" clip-rule="evenodd" d="M17.7756 58.8008C16.1966 59.9465 15.0774 60.7334 14.1177 61.5096C13.2538 62.2088 12.5467 62.9079 11.7624 63.7666C10.5104 65.2659 9.28754 66.8688 8.34649 68.6393C7.72178 69.8169 7.22201 71.0584 6.82592 72.3264C5.81044 75.5855 5.44359 78.935 5.79449 82.1676C5.79449 82.7364 6.25438 83.1963 6.82327 83.1963C7.38949 83.1963 7.84938 82.7364 7.84938 82.1676C8.11255 79.8654 8.89676 77.6484 9.85642 75.4287C10.5476 73.8363 11.4195 72.3211 12.2888 70.7978C13.1661 69.264 14.0141 67.7221 15.0375 66.3372C15.5745 65.5423 16.0769 64.8963 16.6883 64.2105C17.4805 63.32 18.3977 62.3709 19.7029 61.0125C20.3117 60.4808 20.3755 59.5557 19.8438 58.9443C19.3121 58.3329 18.387 58.2691 17.7756 58.8008Z" fill="#FFFBFB"/>
<path d="M65.6046 36.9652C65.4507 31.7598 61.1279 27.6842 55.9225 27.8381L48.0926 28.0695C46.781 28.1083 45.7184 29.1908 45.7585 30.547L46.5214 56.3539C46.5602 57.6655 47.6861 58.7268 48.9977 58.688C50.3539 58.6479 51.4152 57.522 51.3764 56.2104L51.0958 46.7184L56.4759 46.5594C61.6813 46.4055 65.7558 42.0828 65.6046 36.9652ZM50.6859 32.8532L56.066 32.6942C58.6025 32.6192 60.6311 34.5724 60.7496 37.1088C60.7785 39.5587 58.8689 41.6294 56.3324 41.7044L50.9523 41.8634L50.6859 32.8532Z" fill="#B6854C"/>
<path fill-rule="evenodd" clip-rule="evenodd" d="M52.6011 48.1787L52.746 56.1703C52.7656 57.2086 52.3621 58.1748 51.6691 58.8767C50.9999 59.5535 50.0743 59.9973 49.0371 60.0168C48.0211 60.0368 47.0753 59.645 46.3832 58.9818C45.6955 58.3206 45.2498 57.4041 45.2288 56.3925L44.5349 30.5836C44.5003 29.5658 44.8842 28.6514 45.5145 27.9769C46.1546 27.2921 47.0571 26.8613 48.0559 26.8251L48.1004 26.8226L55.8822 26.4712C58.885 26.3134 61.6468 27.4154 63.7126 29.2729C65.8139 31.1605 67.1598 33.8632 67.3246 36.9148L67.4281 36.9118C67.4628 39.9706 66.2642 42.7775 64.2489 44.8157C62.2801 46.8058 59.5621 48.0876 56.5224 48.1274L52.6011 48.1787ZM65.6047 36.9657C65.4508 31.7602 61.128 27.6846 55.9226 27.8385L48.0927 28.07C46.7811 28.1087 45.7185 29.1913 45.7586 30.5474L46.5215 56.3543C46.5603 57.666 47.6862 58.7272 48.9979 58.6885C50.354 58.6484 51.4153 57.5225 51.3765 56.2108L51.0959 46.7189L56.476 46.5598C61.6815 46.4059 65.756 42.0832 65.6047 36.9657ZM50.6861 32.8536L56.0662 32.6946C58.6027 32.6196 60.6313 34.5728 60.7497 37.1092C60.7787 39.5591 58.869 41.6298 56.3325 41.7048L50.9524 41.8639L50.6861 32.8536ZM52.4064 40.4257L56.2945 40.4177C57.2072 40.4085 58.0265 40.0614 58.6059 39.4708C59.1993 38.8653 59.5464 38.0278 59.5387 37.165C59.4878 36.2323 59.0957 35.3977 58.4652 34.825C57.8542 34.2708 57.0104 34.0129 56.107 34.0752L52.4881 34.4116L52.4064 40.4257Z" fill="black"/>
<path d="M95.0696 26.6807L95.0263 26.682C94.2386 26.7053 93.5492 27.0764 93.088 27.747L84.7406 40.0761L75.6794 28.2616C75.2228 27.6181 74.4248 27.291 73.725 27.3117L73.5937 27.3156C72.281 27.3544 71.2197 28.4803 71.2585 29.793L72.0214 55.5999C72.0602 56.9116 73.1861 57.9729 74.4989 57.9341C75.855 57.894 76.9163 56.768 76.8775 55.4564L76.3331 37.041L82.8463 45.6049C83.3462 46.246 84.1009 46.5744 84.8874 46.5512L84.9753 46.5486C85.763 46.5253 86.4524 46.1541 86.9136 45.4847L92.954 36.5497L93.4984 54.9651C93.5372 56.2767 94.6197 57.3393 95.9747 57.2992C97.2875 57.2604 98.3922 56.1332 98.3534 54.8216L97.5905 29.0146C97.5517 27.7019 96.3837 26.6864 95.0696 26.6807Z" fill="#B6854C"/>
<path fill-rule="evenodd" clip-rule="evenodd" d="M84.6336 37.5116L91.6956 26.7871C92.0742 26.2225 92.5592 25.7918 93.1035 25.4828C93.6631 25.1645 94.2982 24.991 94.9755 24.9632L95.0188 24.9608L95.077 24.8566C96.1854 24.8717 97.2323 25.2962 98.0071 26.006C98.8243 26.7546 99.355 27.7944 99.3784 28.9618L99.9098 54.7755C99.9319 55.8617 99.502 56.8743 98.7744 57.6129C98.062 58.3343 97.0814 58.8009 96.0198 58.8222C94.9215 58.8458 93.9339 58.4341 93.2164 57.7426C92.4921 57.047 92.0304 56.0796 92.0077 55.0091L91.6762 40.8577L87.9991 46.2309C87.6455 46.738 87.2073 47.1317 86.7087 47.4037C86.198 47.6816 85.6259 47.8388 85.014 47.8546L84.926 47.8561C84.3263 47.8716 83.7394 47.7531 83.2087 47.506C82.6792 47.26 82.2029 46.8911 81.8243 46.4012L77.6892 40.9159L78.0902 55.4206C78.1197 56.4185 77.7307 57.3464 77.0716 58.0273C76.432 58.6898 75.5371 59.1171 74.5347 59.1467C73.5468 59.1759 72.6292 58.7944 71.9511 58.1564C71.2742 57.5172 70.8391 56.6226 70.811 55.6357L69.987 29.8306C69.9483 28.8252 70.336 27.8884 70.9813 27.1924C71.6286 26.4918 72.5442 26.0483 73.5551 26.0084L73.6864 26.0034C74.2425 25.9825 74.8396 26.104 75.3871 26.3584C75.9223 26.6087 76.4036 26.9942 76.7345 27.4521L84.6336 37.5116ZM95.0697 26.6807L95.0263 26.682C94.2386 26.7053 93.5492 27.0764 93.088 27.747L84.7406 40.0761L75.6795 28.2616C75.2228 27.6181 74.4248 27.291 73.7251 27.3117L73.5938 27.3156C72.281 27.3544 71.2197 28.4803 71.2586 29.793L72.0214 55.6C72.0602 56.9116 73.1861 57.9729 74.4989 57.9341C75.855 57.894 76.9163 56.7681 76.8775 55.4564L76.3332 37.041L82.8463 45.6049C83.3463 46.246 84.1009 46.5744 84.8875 46.5512L84.9754 46.5486C85.763 46.5253 86.4524 46.1541 86.9136 45.4847L92.9541 36.5497L93.4984 54.9651C93.5372 56.2767 94.6197 57.3393 95.9748 57.2992C97.2875 57.2604 98.3922 56.1332 98.3534 54.8216L97.5906 29.0146C97.5517 27.7019 96.3837 26.6864 95.0697 26.6807Z" fill="black"/>
<path fill-rule="evenodd" clip-rule="evenodd" d="M101.087 8.94649C103.984 6.25089 107.02 4.53092 109.87 3.22565C114.142 1.26909 118.124 0.591191 121.296 0.288135C129.393 -0.472162 136.536 2.92525 141.994 8.07453C143.637 9.62703 145.123 11.3656 146.245 13.3142C148.948 18.0169 150.033 23.4506 149.831 28.4803C149.53 35.727 146.221 42.8329 141.324 47.1979C139.679 48.6627 137.924 49.8643 136.13 50.707C139.689 53.36 142.948 56.1407 145.447 59.6072C147.25 62.1035 148.688 64.7751 149.475 67.7472C149.998 69.725 150.038 71.8225 149.98 73.9412C149.685 82.6182 146.093 90.7369 139.923 96.4152C134.178 101.703 126.4 105.066 117.396 104.707C113.153 104.531 109.131 103.688 105.478 102.192C102.078 100.799 98.9814 98.9353 96.3363 96.6438L58.5873 98.0182C55.8013 101.788 51.4389 104.965 46.7735 107.291C40.5502 110.393 33.8298 111.871 30.0948 111.749C21.2477 111.451 14.5752 108.753 9.73424 104.388C4.60091 99.7568 1.50656 93.0789 0.390041 84.6571C0.0710357 82.0413 -0.0166913 79.3829 0.483084 76.7724C0.958934 74.2921 1.84152 71.881 3.06172 69.523C5.2921 65.2164 8.48482 61.072 12.7834 57.345C9.47639 55.944 7.45336 54.4447 6.02049 52.7911C3.48971 49.8696 2.98728 46.0256 1.8043 39.5125C1.35504 36.7345 1.33377 33.906 1.8176 31.128C2.88095 25.0403 6.21189 19.2743 10.654 14.6487C16.88 8.16492 25.533 3.91417 34.5954 4.12152C37.6712 4.1933 40.5316 4.7941 43.2059 5.81491C46.5767 7.09891 49.6605 8.98902 52.5235 11.0998L101.087 8.94649ZM97.716 92.8822L56.0592 93.5654C51.2821 102.016 36.3526 106.956 30.3526 106.653C15.2371 105.89 7.62349 97.5795 5.98327 83.9846C4.83219 74.4171 9.50562 64.5146 19.3363 56.271C7.11308 51.7278 7.79363 49.0641 6.73825 38.9968C5.18842 24.1817 18.9854 8.69925 34.5954 8.69925C41.0845 8.69925 46.4412 11.8016 51.2156 15.3133L102.44 12.1073C109.272 5.9558 116.481 5.05994 121.285 5.07057C134.386 5.09981 143.605 17.5995 144.139 28.7514C144.647 39.3318 135.991 50.0344 128.237 48.6733C137.132 54.8168 143.857 63.5496 143.857 73.9412C143.857 87.8419 132.889 100.113 117.396 100.113C109.735 100.113 102.786 97.3536 97.716 92.8822Z" fill="black"/>
<path fill-rule="evenodd" clip-rule="evenodd" d="M123.241 50.0424C120.836 49.8988 118.089 50.2551 115.296 51.0738C113.629 51.5603 111.962 52.2222 110.386 53.0596C108.793 53.905 107.278 54.9098 105.97 56.0688C103.75 58.0387 102.076 60.3461 101.081 62.7094C100.536 64.1263 99.9331 65.3571 99.4599 66.7926C99.2578 67.4066 99.0718 68.0314 98.9256 68.7252C98.7049 69.3685 99.0478 70.0703 99.6912 70.2936C100.334 70.5142 101.036 70.174 101.26 69.5307C101.621 68.7916 102.03 68.1776 102.437 67.5662C103.134 66.5294 103.857 65.6096 104.582 64.5569C105.664 62.8795 107.398 61.5184 109.264 60.1547C110.439 59.2961 111.688 58.4693 112.983 57.7064C114.293 56.9354 115.617 56.1964 116.965 55.5877C119.182 54.5881 121.346 53.7933 123.342 53.5594C124.313 53.5301 125.078 52.7193 125.052 51.749C125.022 50.7787 124.212 50.0131 123.241 50.0424Z" fill="black"/>
<path fill-rule="evenodd" clip-rule="evenodd" d="M27.5078 55.991C28.7838 56.613 30.0199 57.0942 31.2108 57.7481C31.8355 58.0937 32.4124 58.5243 32.9813 59.0666C34.8368 60.6856 36.2936 62.1716 37.7211 63.6735C38.4442 64.4338 39.1672 65.1888 39.893 66.0182C40.5735 66.7944 41.2939 67.584 42.009 68.5091C43.0457 69.7797 44.1144 71.1807 45.0102 72.7438C45.5818 73.7354 46.1135 74.7322 46.4856 75.8115C46.6239 76.4788 47.2778 76.9068 47.9424 76.7685C48.6096 76.6303 49.0376 75.9763 48.8994 75.3091C48.7665 73.6503 48.3624 72.0446 47.8334 70.4683C47.2938 68.8653 46.5733 67.3846 45.8769 66.0022C45.2522 64.8379 44.6461 63.7905 43.9788 62.8308C43.2451 61.7702 42.4636 60.8132 41.6049 59.9333C40.0099 58.3011 38.1597 56.9267 35.9719 55.3264C34.9671 54.6538 33.9835 54.1461 32.9414 53.7952C31.5777 53.3379 30.198 53.0907 28.7465 52.6973C27.8374 52.3544 26.8219 52.8169 26.479 53.7234C26.1387 54.6326 26.5986 55.648 27.5078 55.991Z" fill="black"/>
<path fill-rule="evenodd" clip-rule="evenodd" d="M22.0156 43.1059L28.1324 37.0715C29.7115 35.317 31.3171 33.6502 32.8217 31.9037C33.7282 30.8536 34.5869 29.777 35.4508 28.695C36.7375 27.0814 37.9577 25.4386 39.3134 23.8329L43.7688 18.285C44.2499 17.8038 44.2499 17.0223 43.7714 16.5411C43.2903 16.06 42.5087 16.0573 42.0276 16.5385L36.4557 20.9752C34.1616 22.9504 31.9525 24.9016 29.9135 27.0655C29.1054 27.9215 28.3478 28.828 27.6008 29.7477C26.5002 31.1008 25.4661 32.5177 24.3842 33.932L19.3307 40.833C18.7007 41.572 18.7937 42.6832 19.5354 43.3132C20.2771 43.9406 21.3856 43.8476 22.0156 43.1059Z" fill="black"/>
<path fill-rule="evenodd" clip-rule="evenodd" d="M103.099 18.2773L108.089 22.217L112.773 26.5873C114.27 27.8261 115.793 29.2722 117.359 30.7343C118.839 32.1166 120.352 33.499 121.681 35.0248C123.513 37.1223 125.116 39.2888 126.001 41.7132C126.166 42.3751 126.836 42.7766 127.497 42.6118C128.157 42.4469 128.558 41.777 128.393 41.1151C127.864 37.4679 126.179 33.8924 123.893 30.6014C122.595 28.7352 121.107 26.986 119.528 25.4309C118.433 24.3543 117.258 23.4212 116.157 22.5254L110.899 18.6043C110.282 18.1949 109.243 17.5357 107.916 16.8099C107.012 16.3128 105.992 15.7838 104.896 15.2522C104.062 14.7577 102.982 15.0315 102.485 15.8662C101.988 16.7009 102.265 17.7802 103.099 18.2773Z" fill="black"/>
</svg>
