<svg width="912" height="912" viewBox="0 0 912 912" fill="none" xmlns="http://www.w3.org/2000/svg">
<rect width="912" height="912" rx="125" fill="url(#paint0_linear)"/>
<path d="M355.286 300.001C388.66 300.001 415.714 273.81 415.714 241.5C415.714 209.191 388.66 183 355.286 183C321.912 183 294.857 209.191 294.857 241.5C294.857 273.81 321.912 300.001 355.286 300.001ZM294.857 378.002C294.857 345.692 267.803 319.501 234.429 319.501C201.054 319.501 174 345.692 174 378.002C174 410.311 201.054 436.502 234.429 436.502C267.803 436.502 294.857 410.311 294.857 378.002ZM556.714 300.001C590.088 300.001 617.143 273.81 617.143 241.5C617.143 209.191 590.088 183 556.714 183C523.34 183 496.286 209.191 496.286 241.5C496.286 273.81 523.34 300.001 556.714 300.001ZM677.571 319.501C644.197 319.501 617.143 345.692 617.143 378.002C617.143 410.311 644.197 436.502 677.571 436.502C710.946 436.502 738 410.311 738 378.002C738 345.692 710.946 319.501 677.571 319.501ZM636.417 510.578C603.32 492.492 577.071 435.734 551.855 391.347C532.052 356.442 494.032 339.001 456 339.001C417.968 339.001 379.948 356.442 360.133 391.347C334.589 436.392 309.624 491.968 275.57 510.578C238.998 530.566 214.286 568.347 214.286 611.942C214.286 676.549 268.394 728.919 335.143 728.919C400.242 731.064 426.025 689.931 456 689.931C485.975 689.931 511.758 731.064 576.857 728.919C643.606 728.919 697.714 676.549 697.714 611.942C697.714 568.347 673.001 530.566 636.417 510.578Z" fill="white"/>
<defs>
<linearGradient id="paint0_linear" x1="0" y1="0" x2="895.969" y2="903.094" gradientUnits="userSpaceOnUse">
<stop offset="0.0520833" stop-color="#00FFD1"/>
<stop offset="0.583333" stop-color="#6083FF"/>
<stop offset="1" stop-color="#FB22FF"/>
</linearGradient>
</defs>
</svg>
