<svg width="912" height="912" viewBox="0 0 912 912" fill="none" xmlns="http://www.w3.org/2000/svg">
<rect width="912" height="912" rx="125" fill="url(#paint0_linear)"/>
<path d="M341.393 273.715C379.205 273.715 409.857 243.111 409.857 205.358C409.857 167.604 379.205 137 341.393 137C303.581 137 272.929 167.604 272.929 205.358C272.929 243.111 303.581 273.715 341.393 273.715ZM272.929 364.859C272.929 327.106 242.277 296.501 204.464 296.501C166.652 296.501 136 327.106 136 364.859C136 402.612 166.652 433.217 204.464 433.217C242.277 433.217 272.929 402.612 272.929 364.859ZM569.607 273.715C607.419 273.715 638.071 243.111 638.071 205.358C638.071 167.604 607.419 137 569.607 137C531.795 137 501.143 167.604 501.143 205.358C501.143 243.111 531.795 273.715 569.607 273.715ZM706.536 296.501C668.723 296.501 638.071 327.106 638.071 364.859C638.071 402.612 668.723 433.217 706.536 433.217C744.348 433.217 775 402.612 775 364.859C775 327.106 744.348 296.501 706.536 296.501ZM659.909 519.774C622.41 498.641 592.671 432.319 564.102 380.453C541.665 339.666 498.59 319.287 455.5 319.287C412.41 319.287 369.335 339.666 346.884 380.453C317.944 433.088 289.66 498.028 251.077 519.774C209.642 543.13 181.643 587.278 181.643 638.218C181.643 713.711 242.947 774.905 318.571 774.905C392.327 777.412 421.539 729.348 455.5 729.348C489.461 729.348 518.673 777.412 592.429 774.905C668.053 774.905 729.357 713.711 729.357 638.218C729.357 587.278 701.358 543.13 659.909 519.774Z" fill="white"/>
<defs>
<linearGradient id="paint0_linear" x1="0" y1="0" x2="895.969" y2="903.094" gradientUnits="userSpaceOnUse">
<stop offset="0.0520833" stop-color="#00FFD1"/>
<stop offset="0.583333" stop-color="#6083FF"/>
<stop offset="1" stop-color="#FB22FF"/>
</linearGradient>
</defs>
</svg>
