<svg width="912" height="912" viewBox="0 0 912 912" fill="none" xmlns="http://www.w3.org/2000/svg">
<rect width="912" height="912" rx="125" fill="url(#paint0_linear)"/>
<path d="M646.654 515.973C611.678 496.264 583.94 434.413 557.293 386.043C536.367 348.005 496.19 329 456 329C415.81 329 375.633 348.005 354.693 386.043C327.7 435.13 301.319 495.693 265.333 515.973C226.686 537.755 200.571 578.927 200.571 626.434C200.571 696.838 257.75 753.907 328.286 753.907C330.028 753.96 331.745 754 333.434 754C398.462 754 425.122 711.42 456 711.42C486.878 711.42 513.538 754 578.566 754C580.255 754 581.972 753.973 583.714 753.907C654.25 753.907 711.429 696.838 711.429 626.434C711.429 578.927 685.314 537.755 646.654 515.973ZM582.278 711.434L578.566 711.5C551.799 711.5 534.611 701.247 516.398 690.396C499.489 680.329 480.346 668.92 456.013 668.92C431.681 668.92 412.524 680.329 395.628 690.396C377.416 701.247 360.214 711.5 333.448 711.5L328.299 711.407C281.351 711.407 243.156 673.29 243.156 626.434C243.156 596.126 259.679 567.97 286.286 552.975C326.809 530.131 352.844 480.619 378.028 432.74C382.711 423.828 387.367 414.983 392.023 406.509C404.076 384.582 427.996 371.5 456 371.5C484.004 371.5 507.924 384.582 519.99 406.509C524.394 414.505 528.824 422.872 533.32 431.359C559.129 480.087 585.816 530.477 625.727 552.975C652.334 567.97 668.857 596.126 668.857 626.434C668.857 673.29 630.663 711.407 582.278 711.434ZM307 382.125C307 341.046 273.648 307.75 232.5 307.75C191.352 307.75 158 341.046 158 382.125C158 423.204 191.352 456.5 232.5 456.5C273.648 456.5 307 423.204 307 382.125ZM200.571 382.125C200.571 364.554 214.899 350.25 232.5 350.25C250.101 350.25 264.429 364.554 264.429 382.125C264.429 399.696 250.101 414 232.5 414C214.899 414 200.571 399.696 200.571 382.125ZM679.5 307.75C638.352 307.75 605 341.046 605 382.125C605 423.204 638.352 456.5 679.5 456.5C720.648 456.5 754 423.204 754 382.125C754 341.046 720.648 307.75 679.5 307.75ZM679.5 414C661.899 414 647.571 399.696 647.571 382.125C647.571 364.554 661.899 350.25 679.5 350.25C697.101 350.25 711.429 364.554 711.429 382.125C711.429 399.696 697.101 414 679.5 414ZM551.786 307.75C592.934 307.75 626.286 274.454 626.286 233.375C626.286 192.296 592.934 159 551.786 159C510.638 159 477.286 192.296 477.286 233.375C477.286 274.454 510.638 307.75 551.786 307.75ZM551.786 201.5C569.386 201.5 583.714 215.804 583.714 233.375C583.714 250.946 569.386 265.25 551.786 265.25C534.185 265.25 519.857 250.946 519.857 233.375C519.857 215.804 534.185 201.5 551.786 201.5ZM360.214 307.75C401.362 307.75 434.714 274.454 434.714 233.375C434.714 192.296 401.362 159 360.214 159C319.066 159 285.714 192.296 285.714 233.375C285.714 274.454 319.066 307.75 360.214 307.75ZM360.214 201.5C377.815 201.5 392.143 215.804 392.143 233.375C392.143 250.946 377.815 265.25 360.214 265.25C342.614 265.25 328.286 250.946 328.286 233.375C328.286 215.804 342.614 201.5 360.214 201.5Z" fill="white"/>
<defs>
<linearGradient id="paint0_linear" x1="0" y1="0" x2="895.969" y2="903.094" gradientUnits="userSpaceOnUse">
<stop offset="0.0520833" stop-color="#00FFD1"/>
<stop offset="0.583333" stop-color="#6083FF"/>
<stop offset="1" stop-color="#FB22FF"/>
</linearGradient>
</defs>
</svg>
