<svg width="175" height="200" viewBox="0 0 175 200" fill="none" xmlns="http://www.w3.org/2000/svg">
<g clip-path="url(#clip0)">
<path d="M90.4437 185.756L93.2058 182.994C95.0363 181.164 95.0363 178.196 93.2058 176.365L23.4816 106.641H170.312C172.901 106.641 175 104.542 175 101.953V98.0469C175 95.4583 172.901 93.3594 170.312 93.3594H23.4816L93.2058 23.6352C95.0363 21.8047 95.0363 18.8368 93.2058 17.0059L90.4437 14.2442C88.6133 12.4137 85.6453 12.4137 83.8148 14.2442L1.37303 96.6856C-0.457434 98.5161 -0.457434 101.484 1.37303 103.315L83.8148 185.756C85.6453 187.587 88.6133 187.587 90.4437 185.756Z" fill="#3A3A3A"/>
</g>
<defs>
<clipPath id="clip0">
<rect width="175" height="200" fill="white"/>
</clipPath>
</defs>
</svg>
