<svg width="175" height="200" viewBox="0 0 175 200" fill="none" xmlns="http://www.w3.org/2000/svg">
<path d="M84.5563 14.2441L81.7941 17.0058C79.9637 18.8363 79.9637 21.8043 81.7941 23.6351L151.518 93.3594H4.6875C2.09883 93.3594 0 95.4582 0 98.0469V101.953C0 104.542 2.09883 106.641 4.6875 106.641H151.518L81.7941 176.365C79.9637 178.195 79.9637 181.163 81.7941 182.994L84.5563 185.756C86.3867 187.586 89.3547 187.586 91.1852 185.756L173.627 103.314C175.457 101.484 175.457 98.516 173.627 96.6851L91.1852 14.2441C89.3547 12.4133 86.3867 12.4133 84.5563 14.2441Z" fill="#3A3A3A"/>
</svg>
