<svg width="175" height="175" viewBox="0 0 175 175" fill="none" xmlns="http://www.w3.org/2000/svg">
<g clip-path="url(#clip0)">
<path d="M132.661 85.3831V89.6169C132.661 91.9456 130.756 93.8508 128.427 93.8508H93.8508V128.427C93.8508 130.756 91.9456 132.661 89.6169 132.661H85.3831C83.0544 132.661 81.1492 130.756 81.1492 128.427V93.8508H46.5726C44.2439 93.8508 42.3387 91.9456 42.3387 89.6169V85.3831C42.3387 83.0544 44.2439 81.1492 46.5726 81.1492H81.1492V46.5726C81.1492 44.2439 83.0544 42.3387 85.3831 42.3387H89.6169C91.9456 42.3387 93.8508 44.2439 93.8508 46.5726V81.1492H128.427C130.756 81.1492 132.661 83.0544 132.661 85.3831ZM175 87.5C175 135.837 135.837 175 87.5 175C39.1633 175 0 135.837 0 87.5C0 39.1633 39.1633 0 87.5 0C135.837 0 175 39.1633 175 87.5ZM163.71 87.5C163.71 45.1966 129.38 11.2903 87.5 11.2903C45.1966 11.2903 11.2903 45.62 11.2903 87.5C11.2903 129.803 45.62 163.71 87.5 163.71C129.803 163.71 163.71 129.38 163.71 87.5Z" fill="#3A3A3A"/>
</g>
<defs>
<clipPath id="clip0">
<rect width="175" height="175" fill="white"/>
</clipPath>
</defs>
</svg>
