<svg width="112" height="200" viewBox="0 0 112 200" fill="none" xmlns="http://www.w3.org/2000/svg">
<path d="M112 68.75C112 37.6953 86.9167 12.5 56 12.5C25.0833 12.5 0 37.6953 0 68.75C0 95.5078 18.6278 117.93 43.5556 123.594V143.75H29.5556C26.9889 143.75 24.8889 145.859 24.8889 148.437V164.062C24.8889 166.641 26.9889 168.75 29.5556 168.75H43.5556V182.812C43.5556 185.391 45.6556 187.5 48.2222 187.5H63.7778C66.3444 187.5 68.4444 185.391 68.4444 182.812V168.75H82.4444C85.0111 168.75 87.1111 166.641 87.1111 164.062V148.437C87.1111 145.859 85.0111 143.75 82.4444 143.75H68.4444V123.594C93.3722 117.93 112 95.5078 112 68.75ZM24.8889 68.75C24.8889 51.5234 38.85 37.5 56 37.5C73.15 37.5 87.1111 51.5234 87.1111 68.75C87.1111 85.9765 73.15 100 56 100C38.85 100 24.8889 85.9765 24.8889 68.75Z" fill="#FF5B5B"/>
</svg>
