<svg width="175" height="140" viewBox="0 0 175 140" fill="none" xmlns="http://www.w3.org/2000/svg">
<path d="M26.25 61.25C35.9023 61.25 43.75 53.4023 43.75 43.75C43.75 34.0977 35.9023 26.25 26.25 26.25C16.5977 26.25 8.75 34.0977 8.75 43.75C8.75 53.4023 16.5977 61.25 26.25 61.25ZM148.75 61.25C158.402 61.25 166.25 53.4023 166.25 43.75C166.25 34.0977 158.402 26.25 148.75 26.25C139.098 26.25 131.25 34.0977 131.25 43.75C131.25 53.4023 139.098 61.25 148.75 61.25ZM157.5 70H140C135.188 70 130.84 71.9414 127.668 75.0859C138.688 81.1289 146.508 92.0391 148.203 105H166.25C171.09 105 175 101.09 175 96.25V87.5C175 77.8477 167.152 70 157.5 70ZM87.5 70C104.426 70 118.125 56.3008 118.125 39.375C118.125 22.4492 104.426 8.75 87.5 8.75C70.5742 8.75 56.875 22.4492 56.875 39.375C56.875 56.3008 70.5742 70 87.5 70ZM108.5 78.75H106.23C100.543 81.4844 94.2266 83.125 87.5 83.125C80.7734 83.125 74.4844 81.4844 68.7695 78.75H66.5C49.1094 78.75 35 92.8594 35 110.25V118.125C35 125.371 40.8789 131.25 48.125 131.25H126.875C134.121 131.25 140 125.371 140 118.125V110.25C140 92.8594 125.891 78.75 108.5 78.75ZM47.332 75.0859C44.1602 71.9414 39.8125 70 35 70H17.5C7.84766 70 0 77.8477 0 87.5V96.25C0 101.09 3.91016 105 8.75 105H26.7695C28.4922 92.0391 36.3125 81.1289 47.332 75.0859Z" fill="#3A3A3A"/>
</svg>
