<svg width="150" height="200" viewBox="0 0 150 200" fill="none" xmlns="http://www.w3.org/2000/svg">
<path d="M150 47.6332V50H100V0H102.367C104.853 1.29998e-05 107.238 0.987666 108.996 2.7457L147.254 41.0039C149.012 42.7621 150 45.1467 150 47.6332ZM96.875 62.5C91.7188 62.5 87.5 58.2812 87.5 53.125V0H9.375C4.19727 0 0 4.19727 0 9.375V190.625C0 195.803 4.19727 200 9.375 200H140.625C145.803 200 150 195.803 150 190.625V62.5H96.875ZM43.9629 68.75C54.3184 68.75 62.7129 77.1445 62.7129 87.5C62.7129 97.8555 54.3184 106.25 43.9629 106.25C33.6074 106.25 25.2129 97.8555 25.2129 87.5C25.2129 77.1445 33.6078 68.75 43.9629 68.75ZM125.213 162.5H25.2129L25.4023 143.561L40.8379 128.125C42.6684 126.295 45.4469 126.484 47.2773 128.314L62.7129 143.75L103.148 103.314C104.979 101.484 107.947 101.484 109.778 103.314L125.213 118.75V162.5Z" fill="#3A3A3A"/>
</svg>
