<svg width="175" height="156" viewBox="0 0 175 156" fill="none" xmlns="http://www.w3.org/2000/svg">
<g clip-path="url(#clip0)">
<path d="M160.447 52.105L116.059 45.6336L96.2196 5.40793C92.6649 -1.76221 82.3654 -1.85335 78.7804 5.40793L58.941 45.6336L14.5529 52.105C6.59288 53.2595 3.40277 63.0729 9.17534 68.6935L41.2891 99.9869L33.6936 144.193C32.3264 152.183 40.7422 158.168 47.7908 154.431L87.5 133.559L127.209 154.431C134.258 158.138 142.674 152.183 141.306 144.193L133.711 99.9869L165.825 68.6935C171.597 63.0729 168.407 53.2595 160.447 52.105ZM123.29 96.5841L131.736 145.803L87.5 122.591L43.2943 145.833L51.7404 96.6145L15.9505 61.7057L65.3819 54.5355L87.5 9.72217L109.618 54.5355L159.049 61.7057L123.29 96.5841Z" fill="#3A3A3A"/>
</g>
<defs>
<clipPath id="clip0">
<rect width="175" height="155.556" fill="white"/>
</clipPath>
</defs>
</svg>
