<svg width="175" height="200" viewBox="0 0 175 200" fill="none" xmlns="http://www.w3.org/2000/svg">
<path d="M166.797 0H164.062V10.4167C164.062 13.8542 162.217 16.6667 159.961 16.6667H146.289C144.033 16.6667 142.188 13.8542 142.188 10.4167V0H32.8125V10.4167C32.8125 13.8542 30.9668 16.6667 28.7109 16.6667H15.0391C12.7832 16.6667 10.9375 13.8542 10.9375 10.4167V0H8.20312C3.65723 0 0 5.57292 0 12.5V187.5C0 194.427 3.65723 200 8.20312 200H10.9375V189.583C10.9375 186.146 12.7832 183.333 15.0391 183.333H28.7109C30.9668 183.333 32.8125 186.146 32.8125 189.583V200H142.188V189.583C142.188 186.146 144.033 183.333 146.289 183.333H159.961C162.217 183.333 164.062 186.146 164.062 189.583V200H166.797C171.343 200 175 194.427 175 187.5V12.5C175 5.57292 171.343 0 166.797 0ZM32.8125 160.417C32.8125 163.854 30.9668 166.667 28.7109 166.667H15.0391C12.7832 166.667 10.9375 163.854 10.9375 160.417V139.583C10.9375 136.146 12.7832 133.333 15.0391 133.333H28.7109C30.9668 133.333 32.8125 136.146 32.8125 139.583V160.417ZM32.8125 110.417C32.8125 113.854 30.9668 116.667 28.7109 116.667H15.0391C12.7832 116.667 10.9375 113.854 10.9375 110.417V89.5833C10.9375 86.1458 12.7832 83.3333 15.0391 83.3333H28.7109C30.9668 83.3333 32.8125 86.1458 32.8125 89.5833V110.417ZM32.8125 60.4167C32.8125 63.8542 30.9668 66.6667 28.7109 66.6667H15.0391C12.7832 66.6667 10.9375 63.8542 10.9375 60.4167V39.5833C10.9375 36.1458 12.7832 33.3333 15.0391 33.3333H28.7109C30.9668 33.3333 32.8125 36.1458 32.8125 39.5833V60.4167ZM164.062 160.417C164.062 163.854 162.217 166.667 159.961 166.667H146.289C144.033 166.667 142.188 163.854 142.188 160.417V139.583C142.188 136.146 144.033 133.333 146.289 133.333H159.961C162.217 133.333 164.062 136.146 164.062 139.583V160.417ZM164.062 110.417C164.062 113.854 162.217 116.667 159.961 116.667H146.289C144.033 116.667 142.188 113.854 142.188 110.417V89.5833C142.188 86.1458 144.033 83.3333 146.289 83.3333H159.961C162.217 83.3333 164.062 86.1458 164.062 89.5833V110.417ZM164.062 60.4167C164.062 63.8542 162.217 66.6667 159.961 66.6667H146.289C144.033 66.6667 142.188 63.8542 142.188 60.4167V39.5833C142.188 36.1458 144.033 33.3333 146.289 33.3333H159.961C162.217 33.3333 164.062 36.1458 164.062 39.5833V60.4167Z" fill="#3A3A3A"/>
</svg>
