<svg width="175" height="140" viewBox="0 0 175 140" fill="none" xmlns="http://www.w3.org/2000/svg">
<path d="M173.824 48.1523L148.832 4.40234C147.273 1.69531 144.375 0 141.23 0H33.7695C30.625 0 27.7265 1.69531 26.1679 4.40234L1.17576 48.1523C-2.16018 54.0039 2.02341 61.25 8.74998 61.25H17.5V130.84C17.5 135.898 21.4101 140 26.25 140H96.25C101.09 140 105 135.898 105 130.84V61.25H148.75V137.812C148.75 139.016 149.734 140 150.937 140H155.312C156.516 140 157.5 139.016 157.5 137.812V61.25H166.25C172.977 61.25 177.16 54.0039 173.824 48.1523ZM96.25 130.84C96.25 131.086 96.1679 131.223 96.1953 131.25L26.414 131.305C26.414 131.305 26.25 131.168 26.25 130.84V96.25H96.25V130.84ZM96.25 87.5H26.25V61.25H96.25V87.5ZM8.77732 52.5L33.7695 8.75H141.23L166.25 52.5H8.77732Z" fill="#3A3A3A"/>
</svg>
